<?xml version="1.0" encoding="UTF-8"?>
<svg width="22px" height="22px" viewBox="0 0 22 22" version="1.1" xmlns="http://www.w3.org/2000/svg" xmlns:xlink="http://www.w3.org/1999/xlink">
    <!-- Generator: Sketch 48.2 (47327) - http://www.bohemiancoding.com/sketch -->
    <title>Facebook</title>
    <desc>Created with Sketch.</desc>
    <defs></defs>
    <g id="000_HOME" stroke="none" stroke-width="1" fill="none" fill-rule="evenodd" transform="translate(-1086.000000, -2768.000000)">
        <g id="Facebook" transform="translate(1086.000000, 2768.000000)" fill="#FFFFFF" fill-rule="nonzero">
            <path d="M20.78582,0 L1.21433714,0 C0.543557143,0 0,0.5434 0,1.21433714 L0,20.78582 C0,21.4564429 0.543557143,22 1.21433714,22 L11.7507343,22 L11.7507343,13.4805314 L8.88378857,13.4805314 L8.88378857,10.1601029 L11.7507343,10.1601029 L11.7507343,7.71166 C11.7507343,4.87004571 13.4863457,3.32272286 16.0215,3.32272286 C17.2353657,3.32272286 18.27892,3.41311143 18.5830543,3.45362286 L18.5830543,6.42321429 L16.8253486,6.42396857 C15.4463571,6.42396857 15.1796229,7.07909714 15.1796229,8.04037143 L15.1796229,10.1601029 L18.4673657,10.1601029 L18.0392143,13.4805314 L15.1796229,13.4805314 L15.1796229,22 L20.78582,22 C21.4564429,22 22,21.4564429 22,20.78582 L22,1.21433714 C22,0.5434 21.4564429,0 20.78582,0 Z" id="facebook-facebook"></path>
        </g>
    </g>
</svg>