<?xml version="1.0" encoding="UTF-8"?>
<svg width="64px" height="29px" viewBox="0 0 64 29" version="1.1" xmlns="http://www.w3.org/2000/svg" xmlns:xlink="http://www.w3.org/1999/xlink">
    <!-- Generator: Sketch 48.2 (47327) - http://www.bohemiancoding.com/sketch -->
    <title>Free_mobile_2011</title>
    <desc>Created with Sketch.</desc>
    <defs></defs>
    <g id="1.-100%-COUV-+-PERFORMANCE-4G-(75001)" stroke="none" stroke-width="1" fill="none" fill-rule="evenodd" transform="translate(-815.000000, -253.000000)">
        <g id="Top-page" transform="translate(172.000000, 251.000000)" fill-rule="nonzero">
            <g id="Group-35" transform="translate(625.000000, 2.000000)">
                <g id="Group-34">
                    <g id="Free_mobile_2011" transform="translate(18.000000, 0.000000)">
                        <path d="M63,6.96640996 C63,6.44714075 62.7289081,5.74276585 61.4375033,5.33704735 C60.5508773,5.05857775 59.4763122,5 58.7314855,5 C55.9754407,5 53.0556254,5.87037523 50.7204153,7.38943143 C48.3561356,8.92741275 47,10.8494839 47,12.663051 C47,13.4460102 47.3787512,16 52.2523212,16 C55.3029503,16 58.1161204,15.1234966 61.3746316,13.1579879 C61.5025721,13.081206 61.5842039,12.9364739 61.5870771,12.7800262 C61.5902883,12.62466 61.5147408,12.4757824 61.3895045,12.3932328 L60.8400532,12.0287891 C60.7729563,11.9837293 60.6950427,11.9608389 60.61527,11.9608389 C60.5508773,11.9608389 60.4851324,11.9765197 60.427838,12.0075209 C57.939505,13.3169589 55.7658684,13.9535638 53.7837201,13.9535638 C52.1105219,13.9535638 50.9857609,13.4696215 50.9857609,12.749746 C50.9857609,12.2957234 51.0447454,11.9049648 51.1698127,11.5304277 C54.8172158,11.3238735 63,10.4684581 63,6.96640996 Z M57.8281275,6.57655252 C58.2525114,6.57655252 58.5912073,6.64414223 58.8109202,6.77229232 C58.9905777,6.87845322 59.0144081,6.97722432 59.0144081,7.0511224 C59.0144081,8.71184663 55.4827768,9.79995084 51.8796544,10.053187 C52.8418278,8.78213993 55.2650921,6.57655252 57.8281275,6.57655252 Z" id="Shape" fill="#DC0005"></path>
                        <path d="M20.0462464,9.32471277 C19.9425153,9.15040288 19.7511087,9.04128206 19.5460077,9.04128206 L14.5456669,9.04128206 L16.0263924,6.01928089 C16.7311025,4.52339661 17.5283677,2.8321026 20.5165778,2.8321026 C21.0934736,2.8321026 21.6722583,2.9764948 22.2326264,3.11600569 C22.8099944,3.2599255 23.3525756,3.39455509 23.9102677,3.39455509 C24.4983394,3.39455509 25.0492631,3.13899507 25.4632429,2.67401125 C25.7942694,2.30208718 26,1.84151228 26,1.4721076 C26,0.536786265 24.9831523,0 23.2098076,0 C21.0147702,0 18.6664187,0.723220685 17.2001746,1.39983277 C12.0040198,3.75451209 10.5258128,6.32286667 9.0202171,9.0411246 L4.62148496,9.0411246 C4.40300437,9.0411246 4.20514406,9.16079534 4.10582039,9.35352822 L3.51444316,10.5029972 C3.42314724,10.6791966 3.43180461,10.8944465 3.53569308,11.0637176 C3.64036858,11.2333037 3.82972892,11.3386454 4.02995033,11.3386454 L7.96543435,11.3386454 L0.0543275836,28.014291 C-0.0467275616,28.2274939 -0.00438514091,28.4851009 0.161206779,28.6562615 L0.32333575,28.8238006 C0.431946421,28.9359132 0.584158765,29 0.741408127,29 C0.770685786,29 0.800435665,28.9974806 0.830185544,28.9932292 L4.11888515,28.4880927 C4.30037516,28.4597496 4.45904118,28.3468497 4.54356861,28.186239 L13.3784957,11.3388029 L18.8990659,11.3388029 C19.1087317,11.3388029 19.3028142,11.225903 19.4041842,11.0435625 L20.0520704,9.89582564 C20.1520237,9.71852399 20.1496626,9.49980996 20.0462464,9.32471277 Z" id="Shape" fill="#DC0005"></path>
                        <path d="M48.3889306,12.3925119 L47.8379931,12.0282484 C47.7710694,11.98427 47.6931608,11.9606587 47.6135622,11.9606587 C47.5486665,11.9606587 47.4834328,11.9763395 47.4259731,12.0073407 C44.9389807,13.3167786 42.7661579,13.9533836 40.7821072,13.9533836 C39.1091841,13.9533836 37.9850013,13.4694413 37.9850013,12.7495658 C37.9850013,12.2930198 38.043475,11.9022612 38.1687035,11.5302474 C41.8157064,11.3238735 50,10.4684581 50,6.96640996 C50,5.19141406 47.013108,5 45.729221,5 C39.9188593,5 34,8.86685237 34,12.663051 C34,13.4460102 34.3782202,16 39.2513124,16 C42.3022551,16 45.1162609,15.1234966 48.3737206,13.1579879 C48.502498,13.081206 48.5841246,12.9357529 48.5863216,12.7794855 C48.5893636,12.6242995 48.513821,12.4759626 48.3889306,12.3925119 Z M44.8257513,6.57673275 C45.514423,6.57673275 46.0144917,6.77661806 46.0144917,7.05148288 C46.0144917,8.71220711 42.4820702,9.80031132 38.8785001,10.0535474 C39.8401056,8.78232017 42.2625403,6.57673275 44.8257513,6.57673275 Z" id="Shape" fill="#DC0005"></path>
                        <path d="M36.069961,8.20549494 C37.4337502,8.20549494 38,6.88361349 38,6.17590681 C38,5.73654117 37.8017968,5 36.4732998,5 C35.1225876,5 33.2996854,6.11967954 31.0483934,8.330925 L31.4014723,7.58609391 C31.7687312,6.79566827 31.8158399,6.46281005 31.8158399,6.26042793 C31.8158399,5.68535994 31.4871818,5 29.9203053,5 C27.9957806,5 25.1056063,7.13843835 24.1546091,7.96292474 C24.0533018,8.05050952 23.9961096,8.18819424 24.000206,8.33146564 C24.0036722,8.47383597 24.0688996,8.6070153 24.1735156,8.68739146 L24.6504322,9.05070612 C24.7158172,9.10026541 24.7914432,9.12657689 24.8700628,9.12657689 C24.9458463,9.12657689 25.0194241,9.10206756 25.0829185,9.05539172 C25.5213918,8.73568924 27.0231985,7.6922409 27.9439453,7.6922409 C28.1048081,7.6922409 28.1834277,7.74522429 28.2165141,7.77676202 C28.2343177,7.79406272 28.2425105,7.80866018 28.2458192,7.8158688 C28.2374688,7.99338117 28.0589599,8.47041187 27.8634351,8.83480782 C27.8561876,8.84922507 24.9959486,14.6955995 24.9675888,14.7543497 C24.9274125,14.823913 24.8428059,14.9725908 24.8428059,15.1699269 C24.8428059,15.9909892 26.3909335,16 26.407004,16 C27.5056295,16 27.899515,15.942331 28.0677829,15.6010027 C28.0677829,15.6010027 28.0947247,15.5454962 28.7254142,14.2342475 C29.986478,11.9565025 32.4479474,8.11953209 34.7157826,8.11953209 C34.9204455,8.11953209 35.134089,8.14007667 35.3603368,8.16098168 C35.5943048,8.1831482 35.834575,8.20549494 36.069961,8.20549494 Z" id="Shape" fill="#DC0005"></path>
                        <g id="Group" transform="translate(16.000000, 16.000000)" fill="#434343">
                            <path d="M10.3340638,1.59616179 C9.0835681,1.59616179 7.93832586,2.14182203 7.19487155,3.07455855 C6.45011379,2.16168413 5.31448448,1.62759707 4.08191121,1.62759707 C1.9062931,1.62759707 0.136373276,3.31180894 0.136373276,5.38122034 L0.136373276,8.86490678 C0.136373276,9.01395069 0.263622414,9.13515639 0.419873276,9.13515639 L1.49081897,9.13515639 C1.64772155,9.13515639 1.77464483,9.01410709 1.77464483,8.86490678 L1.77464483,5.38122034 C1.77464483,4.17135285 2.80941983,3.18669337 4.08207414,3.18669337 C5.35228448,3.18669337 6.38673362,4.1699453 6.38885172,5.37840524 L6.38885172,8.83315871 L6.38885172,8.86506317 C6.38885172,9.01410709 6.515775,9.13531279 6.67316638,9.13531279 L7.74411207,9.13531279 C7.9002,9.13531279 8.02744914,9.01426348 8.02744914,8.86506317 L8.02744914,8.83315871 L8.02744914,5.38137673 L8.02744914,5.34947227 C8.02744914,5.34634438 8.02744914,5.34321649 8.02744914,5.34071418 C8.03282586,4.13444376 9.06548276,3.1549453 10.3342267,3.1549453 C11.6032966,3.1549453 12.6361164,4.13444376 12.6408414,5.34040139 C12.6408414,5.34321649 12.6408414,5.34634438 12.6408414,5.34947227 L12.6408414,8.83315871 C12.6408414,8.98220262 12.7680905,9.10325193 12.9246672,9.10325193 L13.9959388,9.10325193 C14.1531672,9.10325193 14.2797647,8.98235901 14.2797647,8.83315871 L14.2797647,5.34947227 C14.2796017,3.28021726 12.509519,1.59616179 10.3340638,1.59616179 Z" id="Shape"></path>
                            <path d="M22.703625,5.33602234 C22.6821181,3.28522188 20.9170862,1.61993374 18.7587388,1.61993374 C16.5992509,1.61993374 14.8335672,3.28709861 14.8140155,5.33977581 C14.8133638,5.3455624 14.8133638,5.351349 14.8133638,5.3569792 C14.8133638,5.35916872 14.8133638,5.36151464 14.8133638,5.3652681 C14.8133638,5.36792681 14.8133638,5.37058552 14.8133638,5.37340062 C14.8133638,5.37918721 14.8133638,5.38544299 14.8140155,5.3909168 C14.8335672,7.4434376 16.5992509,9.11075886 18.7587388,9.11075886 C20.9183897,9.11075886 22.684725,7.4434376 22.7037879,5.3909168 C22.7046026,5.38544299 22.7046026,5.37918721 22.7046026,5.37340062 C22.7046026,5.37246225 22.7046026,5.37089831 22.7046026,5.36964715 C22.7046026,5.3654245 22.7046026,5.36151464 22.7046026,5.35713559 C22.7046026,5.35009784 22.7046026,5.34306009 22.703625,5.33602234 Z M18.7587388,7.55213174 C17.4911353,7.55213174 16.4565233,6.57075655 16.4526129,5.36448613 C16.4563603,4.15993606 17.4911353,3.17871726 18.7587388,3.17871726 C20.0263422,3.17871726 21.0614431,4.15977966 21.0651905,5.36620647 C21.0614431,6.57075655 20.0263422,7.55213174 18.7587388,7.55213174 Z" id="Shape"></path>
                            <path d="M31.2149793,5.33602234 C31.1936353,3.28522188 29.4281147,1.61993374 27.2696043,1.61993374 C26.4301836,1.61993374 25.6300293,1.86797535 24.9631526,2.32746225 L24.9631526,0.294177966 C24.9631526,0.145290447 24.8359034,0.0243975347 24.6793267,0.0243975347 L23.6082181,0.0243975347 C23.4511526,0.0243975347 23.3240664,0.145134052 23.3240664,0.294177966 L23.3240664,5.2864453 C23.3240664,5.29582897 23.324881,5.30521263 23.3263474,5.31443991 C23.3258586,5.32210324 23.3255328,5.33007935 23.324881,5.33742989 C23.324881,5.34399846 23.3240664,5.35087982 23.3240664,5.3569792 C23.3240664,5.35916872 23.3240664,5.36151464 23.324881,5.3652681 C23.3240664,5.36777042 23.3240664,5.37058552 23.3240664,5.37340062 C23.3240664,5.37918721 23.324881,5.38544299 23.324881,5.3909168 C23.3441069,7.4434376 25.1101164,9.11075886 27.2697672,9.11075886 C29.4299069,9.11075886 31.1959164,7.4434376 31.2151422,5.3909168 C31.215631,5.38544299 31.215631,5.37918721 31.215631,5.37340062 C31.215631,5.37246225 31.215631,5.37089831 31.215631,5.36964715 C31.2162828,5.3654245 31.2162828,5.36151464 31.2162828,5.35713559 C31.2161198,5.35009784 31.2154681,5.34306009 31.2149793,5.33602234 Z M27.2696043,7.55213174 C26.0018379,7.55213174 24.9675517,6.57075655 24.9634784,5.36448613 C24.9675517,4.15993606 26.0018379,3.17871726 27.2696043,3.17871726 C28.5378595,3.17871726 29.5723086,4.15977966 29.5767078,5.36620647 C29.5723086,6.57075655 28.5378595,7.55213174 27.2696043,7.55213174 Z" id="Shape"></path>
                            <path d="M38.7990931,7.55119337 C37.5389845,7.5449376 36.5104009,6.5635624 36.5064905,5.36448613 C36.5064905,5.34900308 36.5069793,5.33211248 36.507631,5.31537827 L36.5082828,5.30802773 C36.5082828,5.30083359 36.5087716,5.29395223 36.5087716,5.28660169 C36.5087716,5.27393374 36.507631,5.26157858 36.5056759,5.24953621 L36.5056759,0.294334361 C36.5056759,0.145446841 36.3789155,0.0245539291 36.2223388,0.0245539291 L35.1510672,0.0245539291 C34.9943276,0.0245539291 34.8672414,0.145290447 34.8672414,0.294334361 L34.8672414,5.28660169 C34.8672414,5.29598536 34.8678931,5.30536903 34.8691966,5.3145963 C34.8683819,5.32225963 34.8683819,5.33023575 34.8678931,5.33758629 C34.8677302,5.34415485 34.8672414,5.35103621 34.8672414,5.35713559 C34.8672414,5.35932512 34.8672414,5.36167103 34.8672414,5.3654245 C34.8672414,5.36792681 34.8672414,5.37074191 34.8672414,5.37355701 C34.8672414,5.37965639 34.8677302,5.38559938 34.8678931,5.39107319 C34.887119,7.43546148 36.6459595,9.10246995 38.7966491,9.11091525 C38.7966491,9.11091525 38.7971379,9.11091525 38.7977897,9.11091525 C38.8732267,9.11091525 38.9449164,9.08213867 38.9981948,9.03162327 C39.0513103,8.98126425 39.0814526,8.9122943 39.0814526,8.84050924 L39.0814526,8.82893606 L39.0814526,8.46750847 L39.0814526,7.82144299 C39.0812897,7.67302465 38.9556698,7.55228814 38.7990931,7.55119337 Z" id="Shape"></path>
                            <path d="M33.3886422,2.5825416 L32.3172078,2.5825416 C32.1604681,2.5825416 32.0335448,2.70327812 32.0335448,2.85232203 L32.0335448,8.86506317 C32.0335448,9.01410709 32.1604681,9.13531279 32.3172078,9.13531279 L33.3886422,9.13531279 C33.5453819,9.13531279 33.6721422,9.01426348 33.6721422,8.86506317 L33.6721422,2.85232203 C33.6721422,2.70327812 33.5453819,2.5825416 33.3886422,2.5825416 Z" id="Shape"></path>
                            <path d="M32.8850224,0.00250231125 C32.4156181,0.00250231125 32.0333819,0.36596302 32.0333819,0.812312789 C32.0333819,1.25897535 32.4156181,1.62259245 32.8850224,1.62259245 C33.3544267,1.62259245 33.7366629,1.25913174 33.7366629,0.812312789 C33.7366629,0.36596302 33.3544267,0.00250231125 32.8850224,0.00250231125 Z" id="Shape"></path>
                            <path d="M46.3445922,5.55653852 L46.9128957,5.55653852 C46.9897991,5.55653852 47.0627922,5.52760555 47.1162336,5.4753698 C47.1700009,5.42313405 47.1985138,5.35260015 47.1968845,5.28018952 C47.1716302,4.29709399 46.7501276,3.37655624 46.0107466,2.68873344 C45.2703879,1.99965948 44.2905207,1.61993374 43.2541164,1.61993374 C41.0941397,1.61993374 39.3279672,3.28709861 39.309556,5.33977581 C39.3084155,5.3455624 39.3084155,5.351349 39.3084155,5.3569792 C39.3084155,5.35916872 39.3084155,5.36151464 39.3084155,5.3652681 C39.3084155,5.36777042 39.3084155,5.37058552 39.3084155,5.37340062 C39.3084155,5.3795 39.3084155,5.38544299 39.309556,5.3909168 C39.3279672,7.4434376 41.0941397,9.11075886 43.2541164,9.11075886 C44.8767466,9.11075886 46.3548569,8.14314638 46.9371724,6.7018151 C46.9516733,6.66912866 46.9603086,6.63315794 46.9603086,6.59484129 C46.9603086,6.44564099 46.8332224,6.32506086 46.6764828,6.32506086 L46.6761569,6.32506086 L45.4936034,6.32506086 C45.3925862,6.32506086 45.2984121,6.37557627 45.2474147,6.45909091 C44.8353621,7.13283821 44.0712155,7.55181895 43.2541164,7.55181895 C42.0542922,7.55181895 41.0628569,6.67303852 40.9566259,5.55622573 L45.8421129,5.55622573 L46.3445922,5.55622573 L46.3445922,5.55653852 Z M43.2542793,3.17871726 C43.9653103,3.17871726 44.6196414,3.48399923 45.0515716,3.9979114 L41.4566612,3.9979114 C41.8887543,3.48399923 42.5427595,3.17871726 43.2542793,3.17871726 Z" id="Shape"></path>
                        </g>
                    </g>
                </g>
            </g>
        </g>
    </g>
</svg>