<?xml version="1.0" encoding="UTF-8"?>
<svg width="22px" height="22px" viewBox="0 0 22 22" version="1.1" xmlns="http://www.w3.org/2000/svg" xmlns:xlink="http://www.w3.org/1999/xlink">
    <!-- Generator: Sketch 48.2 (47327) - http://www.bohemiancoding.com/sketch -->
    <title>Instagram</title>
    <desc>Created with Sketch.</desc>
    <defs></defs>
    <g id="000_HOME" stroke="none" stroke-width="1" fill="none" fill-rule="evenodd" transform="translate(-1128.000000, -2768.000000)">
        <g id="Instagram" transform="translate(1128.000000, 2768.000000)" fill="#FFFFFF">
            <path d="M19.4622208,9.30668419 L17.5469701,9.30668419 C17.6863431,9.84843107 17.7690584,10.4143327 17.7690584,10.9995396 C17.7690584,14.7387932 14.73821,17.7690584 10.9998465,17.7690584 C7.2616365,17.7690584 4.23094158,14.7387932 4.23094158,10.9995396 C4.23094158,10.4143327 4.31365688,9.84843107 4.45333679,9.30668419 L2.53793269,9.30668419 L2.53793269,18.6151792 C2.53793269,19.0818531 2.91694987,19.4607169 3.38497425,19.4607169 L18.6148723,19.4607169 C19.0830501,19.4607169 19.4622208,19.0818531 19.4622208,18.6151792 L19.4622208,9.30668419 Z M19.4622208,3.38405348 C19.4622208,2.91694987 19.0830501,2.53793269 18.6148723,2.53793269 L16.0770931,2.53793269 C15.6098053,2.53793269 15.2309723,2.91694987 15.2309723,3.38405348 L15.2309723,5.92290694 C15.2309723,6.39004124 15.6098053,6.76902773 16.0770931,6.76902773 L18.6148723,6.76902773 C19.0830501,6.76902773 19.4622208,6.39004124 19.4622208,5.92290694 L19.4622208,3.38405348 Z M10.9998465,6.76902773 C8.66316218,6.76902773 6.76902773,8.66288595 6.76902773,10.9995396 C6.76902773,13.3360705 8.66316218,15.2309723 10.9998465,15.2309723 C13.3366844,15.2309723 15.2309723,13.3360705 15.2309723,10.9995396 C15.2309723,8.66288595 13.3366844,6.76902773 10.9998465,6.76902773 Z M19.4622208,22 L2.53793269,22 C1.13640701,22 0,20.8631326 0,19.4607169 L0,2.53793269 C0,1.13625355 1.13640701,0 2.53793269,0 L19.4622208,0 C20.8640534,0 22,1.13625355 22,2.53793269 L22,19.4607169 C22,20.8631326 20.8640534,22 19.4622208,22 Z" id="instagram-instagram"></path>
        </g>
    </g>
</svg>