<?xml version="1.0" encoding="UTF-8"?>
<svg width="29px" height="40px" viewBox="0 0 29 40" version="1.1" xmlns="http://www.w3.org/2000/svg" xmlns:xlink="http://www.w3.org/1999/xlink">
    <!-- Generator: Sketch 48.2 (47327) - http://www.bohemiancoding.com/sketch -->
    <title>noun_571697_cc</title>
    <desc>Created with Sketch.</desc>
    <defs></defs>
    <g id="000_HOME" stroke="none" stroke-width="1" fill="none" fill-rule="evenodd" transform="translate(-583.000000, -1392.000000)">
        <g id="1.2" transform="translate(150.000000, 1213.000000)" fill="#BEA479" fill-rule="nonzero">
            <g id="bloc_2" transform="translate(390.000000, 138.000000)">
                <g id="noun_426701_cc" transform="translate(43.000000, 41.000000)">
                    <g id="noun_571697_cc">
                        <path d="M18.6492308,38.8444444 C17.3107692,38.7111111 16.0169231,38.1777778 15.1246154,37.3333333 C14.1430769,36.3555556 13.6076923,35.0666667 13.6076923,33.6 C13.6076923,30.2222222 16.0169231,28.4444444 18.2923077,26.2222222 C18.6938462,25.7333333 19.1846154,25.2888889 19.72,24.8 C22.9769231,21.5111111 21.9507692,17.6444444 20.1215385,15.4222222 C18.0692308,12.8444444 14.0538462,11.1555556 10.1723077,13.6 C7.54,15.2444444 5.75538462,16.8888889 3.88153846,18.7111111 C3.21230769,19.2888889 2.54307692,20 1.74,20.6666667 C0.803076923,21.6 -0.669230769,20 0.356923077,19.1111111 C1.11538462,18.4 1.78461538,17.7777778 2.49846154,17.1111111 C4.37230769,15.2888889 6.20153846,13.6 9.10153846,11.7777778 C11.2876923,10.4444444 13.7415385,9.95555556 16.24,10.4888889 C18.4261538,11.0222222 20.4784615,12.2666667 21.9061538,14.0888889 C23.3338462,15.8666667 24.1369231,17.9111111 24.1369231,19.9555556 C24.1369231,22.3111111 23.0661538,24.4888889 21.2369231,26.3111111 C20.7461538,26.8444444 20.3,27.2888889 19.8092308,27.7333333 C17.5784615,29.9555556 15.7492308,31.1555556 15.7492308,33.6 C15.7492308,35.6 17.2661538,36.6666667 18.8723077,36.7555556 C20.1215385,36.8444444 20.0769231,38.8444444 18.6492308,38.8444444 Z M5.71076923,23.5111111 C4.59538462,24.7555556 3.43538462,25.9555556 2.18615385,27.2 C1.29384615,28.0888889 -0.267692308,26.6666667 0.713846154,25.6888889 C1.87384615,24.5777778 2.98923077,23.3333333 4.14923077,22.0888889 C6.60307692,19.3333333 10.0830769,14.9777778 14.4553846,14.9777778 C16.3292308,14.9777778 17.4446154,15.8666667 18.0692308,16.5777778 C18.8276923,17.4666667 19.2292308,18.5777778 19.2292308,19.8666667 C19.2292308,22.3111111 17.5784615,25.0222222 14.5,25.0222222 C14.5,25.0222222 14.5,25.0222222 14.4553846,25.0222222 C12.9830769,25.0222222 11.8230769,24.4444444 11.1984615,23.3777778 C10.6630769,22.4888889 10.6630769,21.3777778 11.1984615,20.4888889 C11.7784615,19.4222222 12.8938462,18.6222222 14.3661538,18.8444444 C15.8830769,19.1555556 15.5261538,21.2 14.3661538,20.9777778 C13.6523077,20.8 13.1169231,21.1111111 13.0276923,21.5111111 C12.7153846,22.5777778 13.6969231,22.9333333 14.5,22.9333333 C16.3738462,22.9333333 17.0876923,21.1111111 17.0876923,19.8666667 C17.0876923,17.2888889 14.9015385,17.1111111 14.4553846,17.1111111 C11.3323077,16.9777778 8.65538462,20.2222222 5.71076923,23.5111111 Z M23.9138462,35.0222222 C24.3153846,34.6222222 24.3153846,33.9111111 23.9138462,33.5111111 C23.5123077,33.1111111 22.8430769,33.1111111 22.4415385,33.5111111 C22.1292308,33.7333333 21.8615385,33.6888889 21.6830769,33.6444444 C21.5492308,33.6 21.1923077,33.4222222 21.1923077,32.9333333 C21.1923077,32.1777778 21.9953846,31.4666667 23.3784615,30.3555556 C25.6092308,28.4 28.7769231,25.7777778 28.7769231,20.0444444 C28.7769231,17.8666667 28.3753846,15.8222222 27.5276923,13.8666667 C26.7246154,12.0888889 25.5646154,10.5777778 24.1815385,9.28888889 C21.5492308,6.8 17.9353846,5.33333333 14.2769231,5.33333333 C11.3323077,5.33333333 8.16461538,6.44444444 5.13076923,8.48888889 C2.94461538,10 1.51692308,11.6 1.47230769,11.6444444 C1.11538462,12.0444444 1.11538462,12.7111111 1.60615385,13.1111111 C2.00769231,13.5111111 2.72153846,13.4666667 3.07846154,12.9777778 C3.12307692,12.9777778 8.16461538,7.42222222 14.2769231,7.42222222 C17.4,7.42222222 20.4784615,8.66666667 22.7538462,10.7555556 C24.5384615,12.4 26.6353846,15.3333333 26.6353846,19.9555556 C26.6353846,22.1333333 26.1,23.8666667 25.1184615,25.4222222 C24.2261538,26.7555556 22.9769231,27.7777778 21.9507692,28.6666667 C20.4784615,29.9111111 19.0507692,31.0666667 19.0507692,32.8888889 C19.0507692,34.0444444 19.7646154,35.0666667 20.8353846,35.5111111 C21.2369231,35.6888889 21.5938462,35.7333333 21.9507692,35.7333333 C22.6646154,35.7777778 23.3784615,35.5111111 23.9138462,35.0222222 Z M5.08615385,32.8444444 C4.68461538,34.0888889 2.63230769,33.5555556 3.03384615,32.1777778 C4.50615385,27.4666667 8.29846154,24.4 8.47692308,24.3111111 C9.54769231,23.3777778 10.8415385,24.9777778 9.81538462,25.9555556 C9.77076923,25.9555556 6.33538462,28.7555556 5.08615385,32.8444444 Z M7.62923077,2.4 C7.67384615,2.35555556 9.50307692,1.06666667 12.4476923,0.622222222 C16.1953846,-2.77555756e-16 20.6123077,0.888888889 23.9584615,3.42222222 C25.0738462,4.22222222 23.9584615,6 22.7984615,5.11111111 C19.6307692,2.97777778 16.24,2.17777778 12.9830769,2.71111111 C10.9307692,3.06666667 9.36923077,3.77777778 8.78923077,4.17777778 C7.71846154,4.88888889 6.46923077,3.15555556 7.62923077,2.4 Z M13.1615385,28.2222222 C13.1615385,28.2222222 10.0830769,31.3777778 10.8861538,34.8888889 C11.2430769,36.4 11.8676923,37.3333333 12.3584615,37.8666667 C13.34,38.8444444 11.7784615,40.2666667 10.8415385,39.3333333 C10.1723077,38.6222222 9.23538462,37.3333333 8.83384615,35.2888889 C7.85230769,30.6666667 11.5553846,26.8444444 11.7338462,26.6666667 C12.6261538,25.7777778 14.1876923,27.2444444 13.1615385,28.2222222 Z" id="Shape"></path>
                    </g>
                </g>
            </g>
        </g>
    </g>
</svg>