<?xml version="1.0" encoding="UTF-8"?>
<svg width="31px" height="39px" viewBox="0 0 31 39" version="1.1" xmlns="http://www.w3.org/2000/svg" xmlns:xlink="http://www.w3.org/1999/xlink">
    <!-- Generator: Sketch 48.2 (47327) - http://www.bohemiancoding.com/sketch -->
    <title>noun_103166_cc</title>
    <desc>Created with Sketch.</desc>
    <defs></defs>
    <g id="000_HOME" stroke="none" stroke-width="1" fill="none" fill-rule="evenodd" transform="translate(-969.000000, -1393.000000)">
        <g id="1.2" transform="translate(150.000000, 1213.000000)" fill="#CFBC9C" fill-rule="nonzero">
            <g id="bloc_3" transform="translate(780.000000, 138.000000)">
                <g id="noun_103166_cc" transform="translate(39.000000, 42.000000)">
                    <path d="M15.5,39 L8.1775,33.2086466 C3.61,29.5432331 1,24.1917293 1,18.3270677 L1,5.64473684 L1.58,5.57142857 C3.1025,5.35150376 5.4225,4.91165414 7.7425,4.17857143 C10.86,3.22556391 13.325,1.97932331 14.9925,0.439849624 L15.5,0 L16.0075,0.439849624 C17.675,1.90601504 20.0675,3.22556391 23.2575,4.17857143 C25.5775,4.91165414 27.8975,5.35150376 29.42,5.57142857 L30,5.64473684 L30,18.3270677 C30,24.1184211 27.39,29.5432331 22.8225,33.1353383 L15.5,39 Z M2.45,6.89097744 L2.45,18.3270677 C2.45,23.6785714 4.8425,28.6635338 9.0475,31.962406 L15.5,37.093985 L21.9525,31.962406 C26.1575,28.7368421 28.55,23.7518797 28.55,18.3270677 L28.55,6.89097744 C27.0275,6.59774436 24.925,6.23120301 22.75,5.57142857 C19.705,4.61842105 17.24,3.44548872 15.5,1.97932331 C13.6875,3.44548872 11.295,4.61842105 8.25,5.57142857 C6.075,6.15789474 3.9725,6.59774436 2.45,6.89097744 Z" id="Shape"></path>
                    <rect id="Rectangle-path" transform="translate(26.500000, 8.500000) rotate(45.000000) translate(-26.500000, -8.500000) " x="22" y="8" width="9" height="1"></rect>
                    <rect id="Rectangle-path" transform="translate(22.000000, 9.500000) rotate(45.000000) translate(-22.000000, -9.500000) " x="11" y="9" width="22" height="1"></rect>
                    <rect id="Rectangle-path" transform="translate(18.500000, 14.500000) rotate(45.000000) translate(-18.500000, -14.500000) " x="5" y="14" width="27" height="1"></rect>
                    <rect id="Rectangle-path" transform="translate(15.000000, 17.500000) rotate(45.000000) translate(-15.000000, -17.500000) " x="-1" y="17" width="32" height="1"></rect>
                    <rect id="Rectangle-path" transform="translate(11.500000, 21.500000) rotate(45.000000) translate(-11.500000, -21.500000) " x="-3" y="21" width="29" height="1"></rect>
                    <rect id="Rectangle-path" transform="translate(10.000000, 27.500000) rotate(45.000000) translate(-10.000000, -27.500000) " x="-2" y="27" width="24" height="1"></rect>
                </g>
            </g>
        </g>
    </g>
</svg>